<?xml version="1.0" standalone="no"?><!DOCTYPE svg PUBLIC "-//W3C//DTD SVG 1.1//EN" "http://www.w3.org/Graphics/SVG/1.1/DTD/svg11.dtd"><svg t="1547553590078" class="icon" style="" viewBox="0 0 1024 1024" version="1.1" xmlns="http://www.w3.org/2000/svg" p-id="6783" xmlns:xlink="http://www.w3.org/1999/xlink" width="200" height="200"><defs><style type="text/css"></style></defs><path d="M857.313152 954.88c-5.12 48.64-84.48 76.8-174.08 66.56-89.6-12.8-158.72-58.88-151.04-107.52 5.12-48.64 84.48-76.8 174.08-66.56 87.04 12.8 156.16 61.44 151.04 107.52z m-680.96-2.56c7.68 48.64 87.04 79.36 181.76 69.12 92.16-10.24 163.84-56.32 156.16-104.96-7.68-48.64-87.04-79.36-181.76-69.12-94.72 7.68-163.84 56.32-156.16 104.96z" fill="#E38010" p-id="6784"></path><path d="M847.073152 325.12c0 179.2-145.92 325.12-325.12 325.12S196.833152 504.32 196.833152 325.12 342.753152 0 521.953152 0c179.2 0 325.12 145.92 325.12 325.12z" fill="#040000" p-id="6785"></path><path d="M173.793152 942.08c7.68 48.64 87.04 79.36 181.76 69.12 92.16-10.24 163.84-56.32 156.16-104.96-7.68-48.64-87.04-79.36-181.76-69.12S166.113152 893.44 173.793152 942.08z m686.08 2.56c-5.12 48.64-84.48 76.8-174.08 66.56-89.6-12.8-158.72-58.88-151.04-107.52 5.12-48.64 84.48-76.8 174.08-66.56s156.16 58.88 151.04 107.52z" fill="#F4A418" p-id="6786"></path><path d="M831.713152 686.08c0 145.92-140.8 263.68-314.88 263.68S201.953152 832 201.953152 686.08s140.8-263.68 314.88-263.68S831.713152 540.16 831.713152 686.08z" fill="#040000" p-id="6787"></path><path d="M253.153152 632.32c-46.08 92.16-117.76 151.04-140.8 140.8-28.16-15.36-35.84-107.52 10.24-202.24 46.08-92.16 120.32-151.04 156.16-133.12 38.4 17.92 20.48 102.4-25.6 194.56z m532.48 12.8c43.52 84.48 102.4 148.48 128 143.36 20.48-5.12 35.84-102.4-2.56-197.12s-110.08-163.84-145.92-145.92c-33.28 17.92-25.6 107.52 20.48 199.68z" fill="#040000" p-id="6788"></path><path d="M286.433152 519.68c-20.48 40.96-30.72 84.48-30.72 133.12 0 158.72 120.32 289.28 266.24 289.28 148.48 0 266.24-130.56 266.24-289.28 0-46.08-10.24-92.16-28.16-130.56-135.68 71.68-384 20.48-473.6-2.56zM370.913152 250.88c0 43.52 28.16 79.36 64 79.36S498.913152 294.4 498.913152 250.88s-28.16-79.36-64-79.36S370.913152 207.36 370.913152 250.88zM683.233152 250.88c0 43.52-28.16 79.36-64 79.36s-64-35.84-64-79.36 28.16-79.36 64-79.36 64 35.84 64 79.36z" fill="#FFFFFF" p-id="6789"></path><path d="M532.193152 350.72c-89.6 0-166.4 20.48-209.92 51.2 10.24 25.6 43.52 46.08 74.24 64 38.4 23.04 102.4 38.4 133.12 38.4 28.16 0 102.4-20.48 140.8-46.08 28.16-17.92 56.32-33.28 66.56-56.32-38.4-30.72-115.2-51.2-204.8-51.2z" fill="#F4A418" p-id="6790"></path><path d="M488.673152 250.88c0 28.16-17.92 48.64-40.96 48.64-23.04 0-40.96-23.04-40.96-48.64 0-28.16 17.92-48.64 40.96-48.64 23.04 0 40.96 20.48 40.96 48.64z" fill="#040000" p-id="6791"></path><path d="M475.873152 240.64c0 10.24-7.68 20.48-17.92 20.48-10.24 0-17.92-10.24-17.92-20.48s7.68-20.48 17.92-20.48c10.24 0 17.92 7.68 17.92 20.48z" fill="#FFFFFF" p-id="6792"></path><path d="M588.513152 263.68c-2.56 0-7.68-2.56-7.68-7.68v-7.68c0-20.48 15.36-38.4 33.28-38.4 17.92 0 33.28 17.92 33.28 38.4v5.12c0 5.12-5.12 7.68-7.68 7.68-5.12 0-7.68-5.12-7.68-7.68v-2.56c0-12.8-7.68-23.04-17.92-23.04s-17.92 10.24-17.92 23.04v5.12c0 2.56-2.56 7.68-7.68 7.68z" fill="#040000" p-id="6793"></path><path d="M355.553152 389.12s48.64 40.96 94.72 53.76c53.76 15.36 128 7.68 158.72-2.56 53.76-17.92 107.52-56.32 107.52-56.32s-48.64 38.4-99.84 71.68c-25.6 17.92-53.76 40.96-112.64 28.16-15.36-2.56-40.96-20.48-51.2-25.6-43.52-23.04-87.04-58.88-97.28-69.12z" fill="#893322" p-id="6794"></path><path d="M409.313152 614.4v143.36s-58.88 28.16-112.64-23.04c-20.48-20.48 10.24-156.16 10.24-156.16l102.4 35.84z" fill="#D32D19" p-id="6795"></path><path d="M299.233152 586.24l107.52 87.04s2.56-53.76 0-69.12c-2.56-15.36-107.52-25.6-107.52-25.6" fill="#B72C22" p-id="6796"></path><path d="M532.193152 640C396.513152 640 268.513152 591.36 166.113152 501.76c-2.56-2.56-2.56-10.24-2.56-10.24s2.56-15.36 10.24-51.2c5.12-25.6 15.36-56.32 20.48-56.32 2.56 2.56 7.68 7.68 12.8 10.24 7.68 7.68 15.36 15.36 17.92 15.36 84.48 79.36 192 122.88 307.2 122.88s222.72-43.52 307.2-120.32c0 0 17.92 23.04 28.16 46.08 7.68 25.6 17.92 53.76 10.24 58.88C780.513152 596.48 660.193152 640 532.193152 640z" fill="#D32D19" p-id="6797"></path></svg>